<?xml version="1.0" encoding="utf-8"?>
<svg version="1.1" id="arac" xmlns="http://www.w3.org/2000/svg" xmlns:xlink="http://www.w3.org/1999/xlink" x="0px" y="0px" viewBox="0 0 463 447" style="enable-background:new 0 0 463 447;" xml:space="preserve">

<style type="text/css">
	.st0{fill:#E6E6E6;stroke:#CCCCCC;stroke-width:0.5;stroke-miterlimit:10;}
	.st1{fill:#999999;stroke:#CCCCCC;stroke-width:0.5;stroke-miterlimit:10;}
	.st2{fill:#FFFFFF;stroke:#CCCCCC;stroke-width:0.5;stroke-miterlimit:10;}
	.st3{fill:#999999;}
</style>

<path class="st0" d="M287,165.5c0,0,0-33,0-51c0-10.2-4.2-17.2-7.8-21.4c-2.4-2.7-5.5-4.7-8.9-5.9l-21.9-7.6 c-2.2-0.8-4.6-1.2-6.9-1.2H232H232h-9.4c-2.4,0-4.7,0.4-6.9,1.2l-21.9,7.6c-3.4,1.2-6.5,3.2-8.9,5.9c-3.6,4.1-7.8,11.1-7.8,21.4 c0,18,0,51,0,51s-17,8-12,15c0,0,3,4,12-4v145c0,0,5,30,35,30H231h1.9H252c2.9,0,5.5-0.3,7.9-0.8v5.8h7v-8c16.8-7.6,20.1-27,20.1-27 v-145c9,8,12,4,12,4C304,173.5,287,165.5,287,165.5z"/>
	<polygon class="st1" points="185,177.5 195,207.5 195,269.5 185,290.5 "/>
	<path id="kaput" class="st2" d="M232,158.5c28,0,45,6,45,6s0-36,0-54s-45-23-45-23H232c0,0-45,5-45,23s0,54,0,54 S204,158.5,232,158.5L232,158.5z"/>
	<path class="st1" d="M232,201.5c15,0,31,3,31,3c3,1,4-3,4-3l8-29c3-13-43-11-43-11H232c0,0-46-2-43,11l8,29c0,0,1,4,4,3 C201,204.5,217,201.5,232,201.5L232,201.5z"/>
	<polygon class="st1" points="279,177.5 269,207.5 269,269.5 279,290.5 "/>
	<path id="tavan" class="st2" d="M232,279.5c27,0,33-7,33-7s0-54,0-61s-33-7-33-7H232c0,0-33,0-33,7s0,61,0,61S205,279.5,232,279.5 L232,279.5z"/>
	<path class="st1" d="M232,305.5h21c24-1,18-8,18-8l-9-16c-10,3-30,2-30,2H232c0,0-20,1-30-2l-9,16c0,0-6,7,18,8H232L232,305.5z"/>
	<path id="badaj" class="st2" d="M232,344.5c0,0,11,0,26,0c2.8,0,5.2-0.3,7.3-0.7c6.9-1.5,11.7-7.8,11.7-14.8v-21.5c-18,4-45,3-45,3 H232c0,0-27,1-45-3V329c0,7.3,5.1,13.5,12.2,14.9c2,0.4,4.2,0.6,6.8,0.6C221,344.5,232,344.5,232,344.5L232,344.5z"/>
	<path id="sol" class="st0" d="M71.5,81.5h-7l-2,3v24h15c0,0,15.3,3.2,18.4,17.6c0.7,3.1,0.5,6.3-0.2,9.4c-1.6,6.8-6.4,20-18.2,20 h-15v123h13c0,0,21,2,21,22c0,0-1,26-21,26h-7v10l20,17h17l1-3h12l4-8v-17c0,0,22-32,22-58v-41c0,0-5-42-21-59c0,0-10-13-10-20 c0,0-5-44-8-51c0,0-5-14-13-18l-10-2l-1,2l-10,1V81.5z"/>
	<path id="sol-on-tampon" class="st2" d="M66.5,84.5v21c0,0,29-6,33,20l0.3,2.4c0.4,3,0.4,6.1-0.1,9.2l-0.2,1.4c0,0-2,20-26,20v5 c0,0,24-6,39,0c0,0-6-52-11-67c0,0-3-12-12-12h-7l-5,2l-7-2H66.5z"/>
	<path id="sol-on-kapi" class="st2" d="M72.5,168.5v61c0,0,47-1,66,6c0,0-1-49-21-64c0,0-6-5-15-5h-24 C78.5,166.5,75.5,166.5,72.5,168.5z"/>
	<path class="st1" d="M113.5,175.5l2,49c0,0,3,6,20,7c0,0-5-46-18-55L113.5,175.5z"/>
	<path id="sol-arka-kapi" class="st2" d="M72.5,234.5v26c0,0,0,2.1,14.6,10.2c1.4,0.8,4.2,3.3,5.4,4.8l4.8,5.5c0.8,1,1.7,1.8,2.8,2.5 l17.2,11.4c1.5,1,3.2,1.5,5,1.5h0c0.2,0,0.3-0.1,0.5-0.2c1.8-1.7,14.9-15.1,15.8-32.8v-25C138.5,238.5,104.5,230.5,72.5,234.5z"/>
	<path class="st1" d="M114.5,238.5v48c0,0,6,11,10,4c0,0,11-17,11-28v-21C135.5,241.5,129.5,239.5,114.5,238.5z"/>
	<path id="sol-arka-tampon" class="st2" d="M96.5,287.5c0,0,5,6,3,20c0,0-3,18-18,21h-9v7l8,8l4,1l4,4h13l2-2h10c0,0,6,0,6-9l-1-14 l9-14C127.5,309.5,127.5,301.5,96.5,287.5z"/>
	<path class="st0" d="M392.5,81.5h7l2,3v24h-15c0,0-15.3,3.2-18.4,17.6c-0.7,3.1-0.5,6.3,0.2,9.4c1.6,6.8,6.4,20,18.2,20h15v123h-13 c0,0-21,2-21,22c0,0,1,26,21,26h7v10l-20,17h-17l-1-3h-12l-4-8v-17c0,0-22-32-22-58v-41c0,0,5-42,21-59c0,0,10-13,10-20 c0,0,5-44,8-51c0,0,5-14,13-18l10-2l1,2l10,1V81.5z"/>
	<path id="sag-on-tampon" class="st2" d="M397.5,84.5v21c0,0-29-6-33,20l-0.3,2.4c-0.4,3-0.4,6.1,0.1,9.2l0.2,1.4c0,0,2,20,26,20v5 c0,0-24-6-39,0c0,0,6-52,11-67c0,0,3-12,12-12h7l5,2l7-2H397.5z"/>
	<path id="sag-on-kapi" class="st2" d="M391.5,168.5v61c0,0-47-1-66,6c0,0,1-49,21-64c0,0,6-5,15-5h24 C385.5,166.5,388.5,166.5,391.5,168.5z"/>
	<path class="st1" d="M350.5,175.5l-2,49c0,0-3,6-20,7c0,0,5-46,18-55L350.5,175.5z"/>
	<path id="sag-arka-kapi" class="st2" d="M391.5,234.5v26c0,0,0,2.1-14.6,10.2c-1.4,0.8-4.2,3.3-5.4,4.8l-4.8,5.5 c-0.8,1-1.7,1.8-2.8,2.5L346.8,295c-1.5,1-3.2,1.5-5,1.5l0,0c-0.2,0-0.3-0.1-0.5-0.2c-1.8-1.7-14.9-15.1-15.8-32.8v-25 C325.5,238.5,359.5,230.5,391.5,234.5z"/>
	<path class="st1" d="M349.5,238.5v48c0,0-6,11-10,4c0,0-11-17-11-28v-21C328.5,241.5,334.5,239.5,349.5,238.5z"/>
	<path id="sag-arka-tampon" class="st2" d="M367.5,287.5c0,0-5,6-3,20c0,0,3,18,18,21h9v7l-8,8l-4,1l-4,4h-13l-2-2h-10c0,0-6,0-6-9 l1-14l-9-14C336.5,309.5,336.5,301.5,367.5,287.5z"/>
	<path id="sol-on-far" class="st3" d="M187.5,106.5c0,0,5-12,31-17c0,0-12,6-22,15C189.9,110.5,187.5,106.5,187.5,106.5z"/>
	<path id="sag-on-far" class="st3" d="M276.5,106.5c0,0-5-12-31-17c0,0,12,6,22,15C274.1,110.5,276.5,106.5,276.5,106.5z"/>
</svg>
